<?xml version="1.0" encoding="UTF-8"?>
<svg id="Layer_1" data-name="Layer 1" xmlns="http://www.w3.org/2000/svg" viewBox="0 0 192 192">
  <defs>
    <style>
      .cls-1 {
        fill: #26313d;
      }
    </style>
  </defs>
  <path class="cls-1" d="m129.81,79.66c5.88,7.32,9.18,16.08,8.76,24.51.96,27.63-24.92,43.47-43.35,43.4-23.57-.09-45.05-19.38-44.41-44.01.55-21.27,20.36-40.64,41.96-41.22,2.29-.06,4.54.06,6.73.33l4.95-20.94c-2.92-.41-5.91-.66-8.97-.69-39.38-.4-66.19,30.42-66.8,62.51-.69,36.59,29.36,64.58,65.36,65.47,37.01-.15,66.26-28.53,66.7-63.21.2-15.89-5.67-30.78-15.72-42.27l-15.21,16.13Z"/>
  <path class="cls-1" d="m141.24,17.58c-.94.99-26.73,28.24-26.73,28.24,0,0-8.41,37-8.72,37.89-.31.89,2.17,2.36,2.95,1.58s27.52-27.82,27.52-27.82c0,0,7.73-37.21,7.93-38.32s-2-2.57-2.95-1.58Z"/>
</svg>