<?xml version="1.0" standalone="no"?>
<!DOCTYPE svg PUBLIC "-//W3C//DTD SVG 20010904//EN"
 "http://www.w3.org/TR/2001/REC-SVG-20010904/DTD/svg10.dtd">
<svg version="1.0" xmlns="http://www.w3.org/2000/svg"
 width="700.000000pt" height="700.000000pt" viewBox="0 0 700.000000 700.000000"
 preserveAspectRatio="xMidYMid meet">
<metadata>
Created by potrace 1.14, written by Peter Selinger 2001-2017
</metadata>
<g transform="translate(0.000000,700.000000) scale(0.100000,-0.100000)"
fill="#000000" stroke="none">
<path d="M5082 6288 c-44 -46 -94 -99 -113 -119 -30 -31 -160 -169 -330 -349
-28 -30 -116 -122 -194 -205 -290 -306 -272 -285 -284 -340 -6 -27 -18 -81
-26 -120 -9 -38 -18 -81 -21 -95 -3 -13 -14 -63 -25 -110 -26 -107 -28 -116
-38 -165 -7 -34 -59 -258 -106 -460 -8 -33 -19 -82 -25 -110 -7 -27 -14 -58
-16 -67 -2 -10 -6 -26 -8 -35 -2 -10 -10 -40 -16 -68 -24 -100 -24 -122 2
-138 64 -41 44 -56 395 299 178 181 407 412 508 514 114 115 186 194 189 210
2 14 9 48 15 75 6 28 13 61 15 75 2 14 36 178 75 365 39 187 73 349 75 360 2
11 18 85 34 165 38 181 42 200 46 225 2 11 6 32 10 48 17 76 17 77 -10 102
-44 41 -65 33 -152 -57z"/>
<path d="M3377 5504 c-1 -1 -47 -4 -102 -8 -142 -9 -206 -17 -372 -50 -59 -12
-226 -61 -312 -92 -184 -66 -499 -238 -615 -334 -12 -10 -62 -52 -112 -93
-239 -199 -467 -499 -603 -792 -69 -148 -152 -394 -167 -495 -3 -19 -7 -42
-10 -51 -2 -9 -7 -32 -9 -50 -3 -19 -7 -44 -9 -57 -3 -13 -8 -67 -13 -120 -15
-195 -4 -422 28 -587 5 -27 11 -61 14 -74 48 -255 190 -583 353 -816 384 -552
985 -918 1672 -1019 161 -24 384 -35 470 -22 19 3 65 7 103 11 71 5 256 33
267 40 4 2 17 6 31 8 53 10 159 40 244 68 538 182 993 541 1290 1019 57 93
175 327 175 349 0 6 9 30 20 54 34 74 93 302 115 442 28 178 28 489 1 665 -51
328 -158 614 -333 892 -60 95 -162 234 -202 275 -16 17 2 34 -286 -272 -71
-76 -163 -172 -202 -214 -40 -42 -73 -81 -73 -88 0 -6 11 -24 24 -40 80 -95
185 -296 230 -438 46 -147 56 -216 57 -395 1 -185 -9 -286 -41 -415 -91 -366
-311 -671 -646 -894 -188 -125 -407 -218 -618 -262 -107 -23 -337 -31 -462
-17 -199 23 -428 99 -616 206 -420 238 -711 639 -794 1093 -24 130 -24 373 0
494 37 189 115 382 220 545 26 39 51 77 56 83 83 104 118 143 181 204 259 253
564 407 904 459 59 9 299 12 351 4 24 -4 44 -5 44 -2 0 2 29 129 65 281 36
152 67 285 69 296 3 11 13 57 24 103 18 74 18 82 3 83 -9 1 -25 3 -36 4 -65
10 -371 25 -378 19z"/>
</g>
</svg>
