<?xml version="1.0" encoding="UTF-8"?>
<svg id="Layer_1" data-name="Layer 1" xmlns="http://www.w3.org/2000/svg" viewBox="0 0 373.27 269.92">
  <defs>
    <style>
      .cls-1 {
        fill: #096e93;
      }
    </style>
  </defs>
  <g>
    <path class="cls-1" d="m112.41,77.95c3.33,4.14,5.2,9.1,4.96,13.87.54,15.63-14.1,24.59-24.53,24.55-13.34-.05-25.49-10.97-25.13-24.9.31-12.04,11.52-23,23.74-23.32,1.3-.03,2.57.04,3.81.19l2.8-11.85c-1.65-.23-3.34-.37-5.07-.39-22.28-.23-37.45,17.21-37.8,35.37-.39,20.7,16.61,36.54,36.98,37.04,20.94-.09,37.49-16.14,37.74-35.77.11-8.99-3.21-17.41-8.9-23.92l-8.61,9.13Z"/>
    <path class="cls-1" d="m118.87,42.83c-.53.56-15.12,15.98-15.12,15.98,0,0-4.76,20.93-4.94,21.44s1.23,1.33,1.67.89,15.57-15.74,15.57-15.74c0,0,4.38-21.05,4.49-21.68s-1.13-1.46-1.67-.89Z"/>
  </g>
  <g>
    <path class="cls-1" d="m259.15,184.81c1.7-.02,3.42.26,5.08.04,6.99-.95,11.69-7.09,10.48-13.56-.93-4.99-5.53-8.94-11.04-9.23-3.73-.2-7.47-.13-11.21-.2-.64-.01-.68.28-.67.74.01,3.59,0,7.19,0,10.78.01,0,.03,0,.04,0,0,3.59.02,7.19-.02,10.78v13.93c.09,4.42.17,8.83.34,13.25.05,1.21.41,2.41.63,3.61.03.18.05.36.07.57h-13.78v-64.29c.25-.03.5-.07.74-.07,8.23,0,16.46-.2,24.68.08,12.48.43,20.93,8.29,22.7,18.53,1.12,6.45-.26,12.42-4.5,17.67-3.75,4.63-8.89,7.35-15.08,7.93-2.81.27-5.64.3-8.47.32"/>
    <path class="cls-1" d="m119.07,169.11v34.93c3.3,0,6.52.06,9.74-.02,1.63-.04,3.3-.15,4.87-.55,6.76-1.69,11.67-5.45,14.01-11.65,2.09-5.53,1.97-11.21.29-16.81-1.68-5.61-5.82-9.18-11.61-11.14-3.33-1.13-6.87-1.24-10.38-1.31-2.29-.04-4.58,0-6.91,0l-12.41.54v-11.93c.74,0,1.43,0,2.11,0,7.51,0,15.02-.1,22.53.05,6.6.13,12.77,1.8,18.17,5.45,4.71,3.18,7.84,7.5,9.64,12.56,3.36,9.45,3.59,18.95-.57,28.25-3.84,8.6-10.56,14.44-20.35,17.04-2.84.75-5.76,1.02-8.7,1.03-7.28.02-14.56,0-21.84,0-.31,0-.62,0-.99,0v-46.49l12.41.05Z"/>
    <path class="cls-1" d="m179.86,214.89c-.09.27-.51.63-.78.63-4.46.04-8.92.02-13.38.02-.08,0-.16-.04-.32-.07.47-1.29.94-2.56,1.4-3.84,7.07-19.41,14.15-38.82,21.21-58.23.81-2.23.79-2.25,3.36-2.25,4.78,0,9.55.04,14.33,0,.83,0,1.05.35,1.27.97,4.34,11.96,8.7,23.92,13.06,35.88,3.26,8.94,6.52,17.87,9.78,26.81.07.2.11.4.19.7-.33.02-.6.04-.87.04-4.11,0-8.23-.02-12.34.02-.78,0-1.12-.25-1.34-.9-2.24-6.64-4.52-13.28-6.75-19.92-.2-.59-.48-.75-1.14-.74-4.26.01-9.96.01-12.84,0l3.11-10.7h8c-2.68-7.16-5.32-14.23-7.97-21.3-.1,0-.19.01-.29.02-2.64,7.05-15.38,46.2-17.69,52.88Z"/>
  </g>
  <g>
    <path class="cls-1" d="m263.16,60.72c2.18,0,4.31,0,6.43,0,1.81,0,3.63.02,5.44,0,.57,0,.89.19,1.17.63,9.15,14.31,18.31,28.61,27.46,42.92.5.79,1.03,1.56,1.55,2.34.08-.02.16-.04.24-.06,0-.38,0-.77,0-1.15-.02-14.65-.04-29.29-.07-43.94,0-.58.15-.77.83-.76,3.14.04,6.27.02,9.41.02.69,0,1.37,0,2.16,0,.02.38.05.69.05,1,0,20.88-.02,41.76,0,62.63,0,.66-.24.8-.89.79-3.57-.03-7.14-.02-10.7,0-.54,0-.87-.14-1.17-.59-9.17-13.77-18.36-27.53-27.55-41.29-.59-.89-1.19-1.78-1.97-2.61v44.42h-12.38V60.72Z"/>
    <path class="cls-1" d="m219.87,96.63c4.55-2.83,11.5-6.94,18.45-11.04-3.69-4.72-14.07-6.75-21.85-1.9-4.14,2.58-6.57,6.19-7.5,10.66-.58,2.78-.66,5.2.49,8.3,2.05,4.08,3.61,6.5,6.17,8.27,6.68,5.69,20.15,5.66,25.39-3.08.18.11.39.19.54.31,2.98,2.47,5.95,4.95,8.94,7.4.46.38.23.62-.03.93-2.24,2.68-5.02,4.76-8.31,6.22-4.65,2.05-9.59,3.14-14.71,3.36-5.63.24-10.9-1.12-15.72-3.76-8.47-4.64-13.52-11.55-14.82-20.56-1.49-10.37,2.47-18.88,10.99-25.67,4.44-3.54,9.67-5.23,15.36-5.91,5.7-.68,11.12.18,16.2,2.66,6.13,2.98,10.55,7.38,12.68,13.58.81,2.37.78,2.36-1.48,3.69-9.12,5.4-18.23,10.8-24.93,14.91l-5.86-8.38Z"/>
    <path class="cls-1" d="m160.82,94.39c1.7-.02,3.42.26,5.08.04,6.99-.95,11.69-7.09,10.48-13.56-.93-4.99-5.53-8.94-11.04-9.23-3.73-.2-7.47-.13-11.21-.2-.64-.01-.68.28-.67.74.01,3.59,0,7.19,0,10.78.01,0,.03,0,.04,0,0,3.59.02,7.19-.02,10.78v13.93c.09,4.42.17,8.83.34,13.25.05,1.21.41,2.41.63,3.61.03.18.05.36.07.57h-13.78V60.8c.25-.03.5-.07.74-.07,8.23,0,16.46-.2,24.68.08,12.48.43,20.93,8.29,22.7,18.53,1.12,6.45-.26,12.42-4.5,17.67-3.75,4.63-8.89,7.35-15.08,7.93-2.81.27-5.64.3-8.47.32"/>
  </g>
</svg>