<?xml version="1.0" standalone="no"?>
<!DOCTYPE svg PUBLIC "-//W3C//DTD SVG 20010904//EN"
 "http://www.w3.org/TR/2001/REC-SVG-20010904/DTD/svg10.dtd">
<svg version="1.0" xmlns="http://www.w3.org/2000/svg"
 width="700.000000pt" height="700.000000pt" viewBox="0 0 700.000000 700.000000"
 preserveAspectRatio="xMidYMid meet">
<metadata>
Created by potrace 1.14, written by Peter Selinger 2001-2017
</metadata>
<g transform="translate(0.000000,700.000000) scale(0.100000,-0.100000)"
fill="#000000" stroke="none">
<path d="M5136 6338 c-93 -90 -948 -1003 -956 -1021 -5 -12 -64 -260 -130
-552 -67 -291 -137 -597 -156 -680 l-36 -149 27 -23 c14 -13 37 -23 50 -23 17
0 145 124 527 509 l503 510 143 693 c78 381 143 700 142 709 0 19 -27 44 -57
53 -17 5 -30 -1 -57 -26z"/>
<path d="M3137 5485 c-1047 -132 -1868 -900 -2058 -1923 -30 -159 -37 -495
-15 -670 123 -965 838 -1740 1828 -1982 209 -51 323 -64 553 -65 332 0 605 51
905 168 1069 419 1683 1511 1464 2605 -71 355 -247 728 -469 996 l-57 68 -24
-23 c-13 -13 -137 -145 -277 -293 l-253 -270 58 -80 c64 -89 164 -284 198
-386 44 -130 60 -249 60 -433 0 -191 -15 -314 -55 -452 -155 -535 -646 -966
-1249 -1097 -146 -32 -404 -32 -565 1 -582 115 -1060 519 -1245 1050 -57 163
-80 300 -80 481 0 108 5 182 18 245 59 298 198 561 419 791 148 154 286 257
462 344 254 126 410 163 687 164 l187 0 41 170 c22 94 62 263 89 376 l49 205
-32 8 c-59 15 -523 17 -639 2z"/>
</g>
</svg>
