<?xml version="1.0" encoding="UTF-8"?>
<svg id="Layer_1" data-name="Layer 1" xmlns="http://www.w3.org/2000/svg" viewBox="0 0 200.16 200.16">
  <defs>
    <style>
      .cls-1 {
        fill: #f2f9f2;
      }

      .cls-2 {
        fill: #d15845;
      }

      .cls-3 {
        fill: #d4b245;
      }
    </style>
  </defs>
  <rect class="cls-1" x="-3.27" y="-3.27" width="206.69" height="206.69"/>
  <g>
    <path class="cls-2" d="m122.62,89.19c3.92,4.88,6.12,10.72,5.84,16.34.64,18.42-16.61,28.98-28.9,28.93-15.71-.06-30.04-12.92-29.61-29.34.37-14.18,13.58-27.1,27.97-27.48,1.53-.04,3.02.04,4.49.22l3.3-13.96c-1.95-.27-3.94-.44-5.98-.46-26.25-.27-44.13,20.28-44.53,41.67-.46,24.39,19.58,43.06,43.57,43.65,24.67-.1,44.17-19.02,44.47-42.14.13-10.59-3.78-20.52-10.48-28.18l-10.14,10.75Z"/>
    <path class="cls-3" d="m130.24,47.8c-.63.66-17.82,18.83-17.82,18.83,0,0-5.61,24.67-5.82,25.26s1.45,1.57,1.96,1.05,18.35-18.54,18.35-18.54c0,0,5.16-24.81,5.29-25.55s-1.34-1.72-1.96-1.05Z"/>
  </g>
</svg>