<?xml version="1.0" encoding="UTF-8"?>
<svg id="Layer_1" data-name="Layer 1" xmlns="http://www.w3.org/2000/svg" viewBox="0 0 192 192">
  <defs>
    <style>
      .cls-1 {
        fill: #f2f9f2;
      }

      .cls-2 {
        fill: #d15845;
      }
    </style>
  </defs>
  <rect class="cls-2" x="0" y="0" width="192" height="192" rx="20" ry="20"/>
  <g>
    <path class="cls-1" d="m129.56,75.84c5.59,6.95,8.73,15.28,8.32,23.29.91,26.25-23.67,41.3-41.18,41.23-22.39-.09-42.8-18.42-42.19-41.81.53-20.21,19.34-38.61,39.86-39.16,2.18-.06,4.31.06,6.39.32l4.7-19.89c-2.78-.39-5.62-.62-8.52-.65-37.41-.38-62.89,28.9-63.46,59.38-.66,34.76,27.9,61.35,62.09,62.2,35.16-.14,62.95-27.11,63.37-60.05.19-15.09-5.39-29.24-14.94-40.16l-14.45,15.32Z"/>
    <path class="cls-1" d="m140.41,16.86c-.89.94-25.39,26.83-25.39,26.83,0,0-7.99,35.15-8.29,36-.3.85,2.07,2.24,2.8,1.5s26.15-26.43,26.15-26.43c0,0,7.35-35.35,7.53-36.4s-1.9-2.44-2.8-1.5Z"/>
  </g>
</svg>